<svg id="Layer_1" data-name="Layer 1" xmlns="http://www.w3.org/2000/svg" viewBox="0 0 58.18 58.18">
    <defs>
        <style>.cls-1{fill:#ffffff;}</style>
    </defs>
    <title>old_logo_vr.2</title>
    <path class="cls-1" d="M66.79,20v0l-.21-.19h0l-1-.91h0l-2.61-2.33h0l-2.22-2h0l-.37-.34-1.43.25L45.23,16.73,37.38,5.93a1.49,1.49,0,0,0-.83-.52L8.64.85,5.07.27,7,2.79H7L8.38,4.6H.46L4.11,8h0L26,28.54,21.3,50.92l-1.58,7.53L20,58l5-7.89h0l6.65-10.49,20.16-9.87a3.32,3.32,0,0,0,1.7-1.47l3.79-6.12H69.22ZM6.85,7.1h3.44l7.25,10Zm4-3.34L34.58,7.61,27.1,25.78ZM24.79,46l2.87-13.24,1.93,5.54Zm6.83-9.17-2.5-7.33h17.7ZM29.26,27,36.64,9.18,49.55,27ZM52,26.05l-5.09-7,10.5-1.81Zm6.87-6.41,1.35-2.19,2.46,2.19Z" transform="translate(-0.46 -0.27)"/>
</svg>