<?xml version="1.0" encoding="UTF-8" standalone="no"?>
<svg
   xmlns:dc="http://purl.org/dc/elements/1.1/"
   xmlns:cc="http://creativecommons.org/ns#"
   xmlns:rdf="http://www.w3.org/1999/02/22-rdf-syntax-ns#"
   xmlns:svg="http://www.w3.org/2000/svg"
   xmlns="http://www.w3.org/2000/svg"
   xmlns:sodipodi="http://sodipodi.sourceforge.net/DTD/sodipodi-0.dtd"
   xmlns:inkscape="http://www.inkscape.org/namespaces/inkscape"
   id="Layer_1"
   data-name="Layer 1"
   viewBox="0 0 108.76001 98.18"
   version="1.1"
   sodipodi:docname="2019_Etherisc_Logo Bird.svg"
   width="108.76"
   height="98.18"
   inkscape:version="0.92.3 (2405546, 2018-03-11)">
  <metadata
     id="metadata909">
    <rdf:RDF>
      <cc:Work
         rdf:about="">
        <dc:format>image/svg+xml</dc:format>
        <dc:type
           rdf:resource="http://purl.org/dc/dcmitype/StillImage" />
        <dc:title>old_logo_vr.2</dc:title>
      </cc:Work>
    </rdf:RDF>
  </metadata>
  <sodipodi:namedview
     pagecolor="#ffffff"
     bordercolor="#666666"
     borderopacity="1"
     objecttolerance="10"
     gridtolerance="10"
     guidetolerance="10"
     inkscape:pageopacity="0"
     inkscape:pageshadow="2"
     inkscape:window-width="2560"
     inkscape:window-height="1362"
     id="namedview907"
     showgrid="false"
     fit-margin-top="20"
     fit-margin-left="20"
     fit-margin-right="20"
     fit-margin-bottom="20"
     inkscape:zoom="3.9392182"
     inkscape:cx="119.15945"
     inkscape:cy="85.979517"
     inkscape:window-x="1600"
     inkscape:window-y="0"
     inkscape:window-maximized="1"
     inkscape:current-layer="Layer_1" />
  <defs
     id="defs884">
    <style
       id="style882">.cls-1{fill:#5081f4;}</style>
  </defs>
  <title
     id="title886">old_logo_vr.2</title>
  <path
     class="cls-1"
     d="m 86.33,39.73 v 0 l -0.21,-0.19 v 0 l -1,-0.91 v 0 L 82.51,36.3 v 0 l -2.22,-2 v 0 l -0.37,-0.34 -1.43,0.25 -13.72,2.25 -7.85,-10.8 A 1.49,1.49 0 0 0 56.09,25.14 L 28.18,20.58 24.61,20 l 1.93,2.52 v 0 l 1.38,1.81 H 20 l 3.65,3.4 v 0 l 21.89,20.54 -4.7,22.38 -1.58,7.53 0.28,-0.45 5,-7.89 v 0 l 6.65,-10.49 20.16,-9.87 a 3.32,3.32 0 0 0 1.7,-1.47 l 3.79,-6.12 H 88.76 Z M 26.39,26.83 h 3.44 l 7.25,10 z m 4,-3.34 23.73,3.85 -7.48,18.17 z m 13.94,42.24 2.87,-13.24 1.93,5.54 z m 6.83,-9.17 -2.5,-7.33 h 17.7 z M 48.8,46.73 56.18,28.91 69.09,46.73 Z m 22.74,-0.95 -5.09,-7 10.5,-1.81 z m 6.87,-6.41 1.35,-2.19 2.46,2.19 z"
     id="path904"
     inkscape:connector-curvature="0"
     style="fill:#5081f4" />
</svg>
